<svg width="373" height="260" viewBox="0 0 373 260" fill="none" xmlns="http://www.w3.org/2000/svg">
<g clip-path="url(#clip0_36_2)">
<mask id="mask0_36_2" style="mask-type:luminance" maskUnits="userSpaceOnUse" x="0" y="0" width="375" height="260">
<path d="M375 0H0V260H375V0Z" fill="white"/>
</mask>
<g mask="url(#mask0_36_2)">
<mask id="mask1_36_2" style="mask-type:luminance" maskUnits="userSpaceOnUse" x="0" y="0" width="375" height="260">
<path d="M0 0H375V260H0V0Z" fill="white"/>
</mask>
<g mask="url(#mask1_36_2)">
<mask id="mask2_36_2" style="mask-type:luminance" maskUnits="userSpaceOnUse" x="243" y="54" width="67" height="81">
<path d="M243.935 54.855H309.845V134.025H243.935V54.855Z" fill="white"/>
</mask>
<g mask="url(#mask2_36_2)">
<path d="M301.366 64.4065V124.858C301.366 127.432 299.26 129.538 296.686 129.538H255.227C252.653 129.538 250.547 127.432 250.547 124.858V64.4065C250.547 61.8325 252.653 59.7265 255.227 59.7265H296.686C299.26 59.7265 301.366 61.8325 301.366 64.4065Z" stroke="#B9C6D0" stroke-width="0.39" stroke-miterlimit="10"/>
<path d="M303.448 82.71H281.808C281.076 82.71 280.476 82.1106 280.476 81.3781V65.2243C280.476 64.4919 281.076 63.8925 281.808 63.8925H303.448C304.181 63.8925 304.78 64.4919 304.78 65.2243V81.3781C304.78 82.1106 304.181 82.71 303.448 82.71Z" fill="#F6FFFF"/>
<path d="M284.887 72.229C285.411 67.9601 289.31 64.9135 293.579 65.4377C297.848 65.9618 300.894 69.8612 300.37 74.1301C299.846 78.3985 295.947 81.4448 291.678 80.9206C287.409 80.3965 284.363 76.4975 284.887 72.229ZM297.753 73.8088C298.1 70.983 296.083 68.4014 293.258 68.0544C290.432 67.7075 287.85 69.7245 287.503 72.5503C287.156 75.376 289.173 77.9569 291.999 78.3039C294.825 78.6508 297.407 76.6346 297.753 73.8088Z" fill="#B9C6D0"/>
<path d="M293.258 68.0544L293.579 65.4373C294.869 65.5957 296.107 66.0774 297.162 66.8313C299.489 68.4962 300.719 71.2927 300.37 74.1297L297.754 73.8084C297.984 71.9303 297.169 70.0786 295.628 68.9758C294.931 68.478 294.112 68.1593 293.258 68.0544Z" fill="#2B5878"/>
<path d="M287.102 78.6841L288.971 76.8243C289.793 77.6498 290.84 78.1619 291.999 78.3043C294.825 78.6512 297.406 76.6342 297.753 73.8088L300.37 74.1301C299.846 78.3985 295.947 81.4448 291.678 80.9206C289.926 80.7055 288.344 79.9325 287.102 78.6841Z" fill="#2B5878"/>
<path d="M297.563 126.591H254.224C253.492 126.591 252.893 125.992 252.893 125.259V111.272C252.893 110.539 253.492 109.94 254.224 109.94H297.563C298.296 109.94 298.895 110.539 298.895 111.272V125.259C298.895 125.992 298.296 126.591 297.563 126.591Z" fill="#B9C6D0"/>
<path d="M266.842 116.52V118.046H255.05V116.52H266.842Z" fill="#F6FFFF"/>
<path d="M281.174 116.52V118.046H269.383V116.52H281.174Z" fill="#F6FFFF"/>
<path d="M266.842 120.42V121.946H255.05V120.42H266.842Z" fill="#F6FFFF"/>
<path d="M281.174 120.42V121.946H269.383V120.42H281.174Z" fill="#F6FFFF"/>
<path d="M295.507 120.42V121.946H283.715V120.42H295.507Z" fill="#F6FFFF"/>
<path d="M295.507 116.52V118.046H283.715V116.52H295.507Z" fill="#F6FFFF"/>
<path d="M266.842 111.795V114.472H255.05V111.795H266.842Z" fill="#F6FFFF"/>
<path d="M281.174 111.795V114.472H269.383V111.795H281.174Z" fill="#F6FFFF"/>
<path d="M295.507 111.795V114.472H283.715V111.795H295.507Z" fill="#F6FFFF"/>
<path d="M297.563 107.291H254.224C253.492 107.291 252.893 106.692 252.893 105.959V87.7726C252.893 87.0397 253.492 86.4407 254.224 86.4407H297.563C298.296 86.4407 298.895 87.0397 298.895 87.7726V105.959C298.895 106.692 298.296 107.291 297.563 107.291Z" fill="#F6FFFF"/>
<path d="M252.893 99.932C252.893 99.932 255.823 94.2692 258.624 96.3077C261.426 98.3467 259.914 100.159 263.25 99.932C266.586 99.7054 266.63 96.1057 269.966 96.1057C273.301 96.1057 272.883 99.6976 276.311 99.416C279.697 99.138 279.319 96.8654 281.841 96.8654C284.473 96.8654 285.787 98.5241 286.613 99.5798C288.491 101.976 292.078 101.182 293.145 97.6716C294.213 94.1608 298.895 94.4447 298.895 94.4447V107.291H252.893V99.932Z" fill="#2B5878"/>
<path d="M268.962 69.6921H256.059C255.794 69.6921 255.577 69.4757 255.577 69.2109V68.7292C255.577 68.4644 255.794 68.2476 256.059 68.2476H268.962C269.227 68.2476 269.443 68.4644 269.443 68.7292V69.2109C269.443 69.4757 269.227 69.6921 268.962 69.6921Z" fill="#B9C6D0"/>
<path d="M254.856 68.9699C254.856 69.512 254.416 69.9515 253.874 69.9515C253.332 69.9515 252.893 69.512 252.893 68.9699C252.893 68.4278 253.332 67.9883 253.874 67.9883C254.416 67.9883 254.856 68.4278 254.856 68.9699Z" fill="#B9C6D0"/>
<path d="M277.02 69.6921H273.738C273.472 69.6921 273.256 69.4757 273.256 69.2109V68.7292C273.256 68.4644 273.472 68.2476 273.738 68.2476H277.02C277.285 68.2476 277.502 68.4644 277.502 68.7292V69.2109C277.502 69.4757 277.285 69.6921 277.02 69.6921Z" fill="#B9C6D0"/>
<path d="M268.962 74.3921H256.059C255.794 74.3921 255.577 74.1756 255.577 73.9108V73.4295C255.577 73.1647 255.794 72.9483 256.059 72.9483H268.962C269.227 72.9483 269.443 73.1647 269.443 73.4295V73.9108C269.443 74.1756 269.227 74.3921 268.962 74.3921Z" fill="#B9C6D0"/>
<path d="M254.856 73.6702C254.856 74.2123 254.416 74.6518 253.874 74.6518C253.332 74.6518 252.893 74.2123 252.893 73.6702C252.893 73.1281 253.332 72.6885 253.874 72.6885C254.416 72.6885 254.856 73.1281 254.856 73.6702Z" fill="#B9C6D0"/>
<path d="M277.02 74.3921H273.738C273.472 74.3921 273.256 74.1756 273.256 73.9108V73.4295C273.256 73.1647 273.472 72.9483 273.738 72.9483H277.02C277.285 72.9483 277.502 73.1647 277.502 73.4295V73.9108C277.502 74.1756 277.285 74.3921 277.02 74.3921Z" fill="#B9C6D0"/>
<path d="M268.962 79.4285H256.059C255.794 79.4285 255.577 79.2117 255.577 78.9472V78.4656C255.577 78.2008 255.794 77.9839 256.059 77.9839H268.962C269.227 77.9839 269.443 78.2008 269.443 78.4656V78.9472C269.443 79.2117 269.227 79.4285 268.962 79.4285Z" fill="#B9C6D0"/>
<path d="M254.856 78.7066C254.856 79.2487 254.416 79.6883 253.874 79.6883C253.332 79.6883 252.893 79.2487 252.893 78.7066C252.893 78.1645 253.332 77.725 253.874 77.725C254.416 77.725 254.856 78.1645 254.856 78.7066Z" fill="#B9C6D0"/>
<path d="M277.02 79.4285H273.738C273.472 79.4285 273.256 79.2117 273.256 78.9472V78.4656C273.256 78.2008 273.472 77.9839 273.738 77.9839H277.02C277.285 77.9839 277.502 78.2008 277.502 78.4656V78.9472C277.502 79.2117 277.285 79.4285 277.02 79.4285Z" fill="#B9C6D0"/>
</g>
<path d="M99.787 262.187C99.511 262.187 99.287 261.963 99.287 261.687V214.687C99.287 214.411 99.511 214.187 99.787 214.187C100.063 214.187 100.287 214.411 100.287 214.687V261.687C100.287 261.963 100.063 262.187 99.787 262.187Z" fill="#2B5878"/>
<path d="M102.245 265.187H40.245C36.661 265.187 33.745 262.271 33.745 258.687V220.687C33.745 217.103 36.661 214.187 40.245 214.187H102.245C105.829 214.187 108.745 217.103 108.745 220.687V258.687C108.745 262.271 105.829 265.187 102.245 265.187ZM40.245 215.187C37.212 215.187 34.745 217.655 34.745 220.687V258.687C34.745 261.719 37.212 264.187 40.245 264.187H102.245C105.278 264.187 107.745 261.719 107.745 258.687V220.687C107.745 217.655 105.278 215.187 102.245 215.187H40.245Z" fill="#2B5878"/>
<path d="M81.245 214.941C80.969 214.941 80.745 214.717 80.745 214.441V207.687C80.745 206.308 79.623 205.187 78.245 205.187H64.245C62.867 205.187 61.745 206.308 61.745 207.687V214.441C61.745 214.717 61.521 214.941 61.245 214.941C60.969 214.941 60.745 214.717 60.745 214.441V207.687C60.745 205.757 62.315 204.187 64.245 204.187H78.245C80.175 204.187 81.745 205.757 81.745 207.687V214.441C81.745 214.717 81.521 214.941 81.245 214.941Z" fill="#2B5878"/>
<path d="M58.244 235.686C57.693 235.686 57.246 236.135 57.246 236.686V240.688C57.246 241.24 57.693 241.688 58.244 241.688H68.244C68.798 241.688 69.244 241.24 69.244 240.688V236.686C69.244 236.135 68.798 235.686 68.244 235.686H58.244Z" fill="#F6FFFF"/>
<path d="M68.245 242.187H58.245C57.418 242.187 56.745 241.514 56.745 240.687V236.687C56.745 235.86 57.418 235.187 58.245 235.187H68.245C69.072 235.187 69.745 235.86 69.745 236.687V240.687C69.745 241.514 69.072 242.187 68.245 242.187ZM58.245 236.187C57.969 236.187 57.745 236.412 57.745 236.687V240.687C57.745 240.962 57.969 241.187 58.245 241.187H68.245C68.521 241.187 68.745 240.962 68.745 240.687V236.687C68.745 236.412 68.521 236.187 68.245 236.187H58.245Z" fill="#2B5878"/>
<path d="M57.245 239.187H34.245C33.969 239.187 33.745 238.963 33.745 238.687C33.745 238.411 33.969 238.187 34.245 238.187H57.245C57.521 238.187 57.745 238.411 57.745 238.687C57.745 238.963 57.521 239.187 57.245 239.187Z" fill="#2B5878"/>
<path d="M99.787 239.187H69.245C68.969 239.187 68.745 238.963 68.745 238.687C68.745 238.411 68.969 238.187 69.245 238.187H99.787C100.063 238.187 100.287 238.411 100.287 238.687C100.287 238.963 100.063 239.187 99.787 239.187Z" fill="#2B5878"/>
<path d="M173.767 128.831C167.563 128.831 160.047 125.743 151.356 119.612C151.164 119.476 151.092 119.225 151.184 119.008C154.097 112.147 153.932 101.287 150.692 86.728C150.633 86.458 150.803 86.191 151.072 86.131C151.338 86.075 151.609 86.241 151.669 86.511C154.896 101.019 155.094 111.954 152.259 119.024C162.302 126.044 170.665 128.889 177.116 127.483C181.325 126.566 184.839 123.798 187.564 119.255C186.295 117.626 185.37 114.051 184.742 108.358C184.712 108.084 184.91 107.837 185.185 107.807C185.457 107.776 185.706 107.975 185.736 108.249C186.371 114.003 187.313 117.572 188.539 118.856C188.692 119.018 188.721 119.261 188.608 119.453C185.712 124.43 181.916 127.46 177.329 128.46C176.195 128.707 175.006 128.831 173.767 128.831Z" fill="#2B5878"/>
<path d="M122.911 259.688C122.911 259.688 132.727 233.385 130.237 223.236C127.872 213.6 127.245 211.768 127.245 211.768L120.949 214.688C120.949 214.688 111.913 175.861 113.903 146.289C114.319 140.101 114.257 131.919 151.409 119.202C151.409 119.202 175.178 139.412 188.178 119.202C188.178 119.202 208.466 124.776 212.532 131.667C216.598 138.556 222.601 150.377 222.601 150.377L237.821 189.641L215.299 199.137L219.107 259.688H122.911Z" fill="#2B5878"/>
<path d="M177.034 109.824H176.956C163.619 108.776 154.299 99.529 149.216 82.34C148.659 80.038 148.227 76.666 147.925 72.292C147.907 72.016 148.114 71.778 148.39 71.759C148.652 71.741 148.904 71.948 148.923 72.223C149.221 76.541 149.644 79.858 150.181 82.081C155.129 98.808 164.153 107.815 176.996 108.825H177.069C188.769 108.825 194.692 103.109 195.138 91.35L196.358 61.205C196.371 60.929 196.612 60.718 196.879 60.725C197.154 60.737 197.369 60.969 197.358 61.245L196.138 91.389C195.673 103.621 189.246 109.824 177.034 109.824Z" fill="#2B5878"/>
<path d="M149.021 86.756C146.108 86.756 143.888 86.094 142.405 84.781C141.015 83.55 140.257 81.741 140.154 79.406C140.04 76.843 140.642 74.89 141.941 73.601C143.329 72.225 145.518 71.606 148.45 71.758C148.726 71.773 148.938 72.008 148.923 72.284C148.909 72.56 148.675 72.766 148.397 72.757C145.758 72.618 143.824 73.141 142.645 74.311C141.554 75.393 141.052 77.092 141.153 79.362C141.244 81.416 141.888 82.987 143.068 84.033C144.613 85.401 147.153 85.958 150.624 85.692C150.91 85.672 151.14 85.877 151.161 86.152C151.182 86.427 150.976 86.667 150.701 86.689C150.118 86.734 149.557 86.756 149.021 86.756Z" fill="#2B5878"/>
<path d="M184.23 84.829H184.217L179.553 84.709C179.277 84.702 179.059 84.473 179.066 84.197C179.073 83.92 179.301 83.7 179.579 83.709L183.584 83.813L179.478 67.573C179.411 67.306 179.573 67.034 179.84 66.966C180.108 66.899 180.38 67.06 180.448 67.328L184.715 84.207C184.753 84.359 184.718 84.52 184.621 84.643C184.525 84.761 184.382 84.829 184.23 84.829Z" fill="#2B5878"/>
<path d="M179.441 91.6202C179.419 91.627 179.397 91.6327 179.373 91.6359C174.867 92.3493 172.141 90.8186 171.269 87.0863C171.207 86.8177 171.382 86.5529 171.643 86.4858C171.911 86.4226 172.181 86.59 172.243 86.8586C172.984 90.0347 175.265 91.274 179.216 90.6485C179.489 90.6048 179.745 90.7912 179.789 91.0643C179.827 91.3129 179.676 91.5483 179.441 91.6202Z" fill="#2B5878"/>
<path d="M165.225 56.858C165.225 56.858 166.941 55.143 171.21 55.143C172.515 55.143 174.71 56.385 174.992 57.575C174.992 57.575 175.703 58.493 171.742 57.563C170.623 57.3 168.797 57.336 167.66 57.493C164.778 57.891 165.225 56.858 165.225 56.858Z" fill="#2B5878"/>
<path d="M186.908 61.284C186.908 61.284 188.258 58.981 191.7 60.498C193.484 61.284 193.75 62.951 193.75 62.951C193.75 62.951 190.187 61.534 188.867 61.735C186.908 62.034 186.908 61.284 186.908 61.284Z" fill="#2B5878"/>
<path d="M190.778 83.406C190.355 83.406 189.93 83.376 189.505 83.316C186.881 82.948 184.576 81.474 183.016 79.166C181.473 76.883 180.843 74.053 181.245 71.196C182.078 65.27 187.138 61.07 192.527 61.823C197.914 62.58 201.619 68.017 200.787 73.943C200.386 76.799 199 79.347 196.887 81.116C195.097 82.614 192.966 83.406 190.778 83.406ZM189.714 81.831C191.915 82.142 194.119 81.477 195.924 79.966C197.752 78.435 198.951 76.222 199.301 73.734C200.019 68.627 196.886 63.95 192.318 63.308C187.759 62.668 183.448 66.298 182.731 71.405C182.381 73.893 182.923 76.351 184.259 78.327C185.578 80.277 187.515 81.522 189.714 81.831Z" fill="#2B5878"/>
<path d="M170.77 80.593C170.347 80.593 169.923 80.564 169.498 80.504C164.111 79.747 160.405 74.31 161.238 68.384C161.639 65.528 163.023 62.98 165.136 61.211C167.271 59.423 169.892 58.641 172.518 59.011C177.905 59.768 181.612 65.205 180.779 71.131C180.378 73.987 178.992 76.534 176.878 78.304C175.089 79.802 172.958 80.593 170.77 80.593ZM171.251 60.422C169.413 60.422 167.616 61.092 166.1 62.361C164.272 63.892 163.073 66.105 162.723 68.593C162.006 73.7 165.139 78.377 169.707 79.019C171.907 79.33 174.11 78.665 175.916 77.153C177.744 75.623 178.944 73.41 179.294 70.922C180.011 65.815 176.877 61.138 172.309 60.496C171.956 60.446 171.603 60.422 171.251 60.422Z" fill="#2B5878"/>
<path d="M148.781 72.857C148.465 72.857 148.172 72.656 148.068 72.34C147.939 71.946 148.154 71.523 148.548 71.394L161.849 67.044C162.243 66.915 162.667 67.129 162.796 67.523C162.925 67.917 162.71 68.341 162.316 68.47L149.014 72.821C148.937 72.846 148.858 72.857 148.781 72.857Z" fill="#2B5878"/>
<path d="M182.812 69.118C182.648 69.118 182.483 69.065 182.345 68.954C181.743 68.476 181.141 68.39 180.451 68.684C180.068 68.85 179.63 68.67 179.467 68.29C179.304 67.909 179.48 67.468 179.861 67.306C181.062 66.792 182.243 66.956 183.279 67.782C183.603 68.039 183.657 68.512 183.399 68.835C183.251 69.021 183.033 69.118 182.812 69.118Z" fill="#2B5878"/>
<path d="M290.502 136.367L266.848 136.371C265.367 136.372 264.01 137.196 263.329 138.511L241.392 180.86C240.051 183.448 241.868 186.55 244.781 186.645L271.66 187.52C273.287 187.572 274.78 186.627 275.427 185.134L294.14 141.903C295.273 139.286 293.354 136.366 290.502 136.367ZM280.297 148.168C279.859 150.682 277.29 152.885 274.525 152.817C271.666 152.747 270.188 150.312 271.197 147.679C272.099 145.327 274.673 143.747 276.973 143.927C279.211 144.102 280.691 145.91 280.297 148.168Z" fill="#2B5878"/>
<path d="M233.406 191.536L236.078 209.572C236.078 209.572 262.801 186.138 264.99 185.268L265.582 179.916C265.582 179.916 263.099 178.628 262.658 176.805C262.658 176.805 255.722 174.458 256.84 172.937C257.957 171.417 263.744 172.37 263.744 172.37L268.792 174.25L266.866 171.603C266.866 171.603 260.218 167.423 259.405 164.924C258.592 162.426 261.009 160.282 263.938 161.72C266.867 163.158 273.633 166.794 273.633 166.794L279.512 171.296L280.071 164.35C280.071 164.35 267.54 159.735 272.478 155.996L284.55 160.522L287.192 172.832C287.192 172.832 269.307 214.075 262.33 223.29C255.351 232.506 230.981 262.042 218.244 245.963L215.302 199.227L233.406 191.536Z" fill="#F6FFFF"/>
<path d="M227.408 251.169C223.639 251.169 220.425 249.522 217.852 246.273L217.754 246.15L214.782 198.905L233.805 190.823L236.438 208.591C241.064 204.542 261.263 186.908 264.523 184.952L265.049 180.188C264.371 179.782 262.762 178.688 262.251 177.193C260.916 176.726 256.754 175.16 256.273 173.635C256.164 173.288 256.222 172.934 256.437 172.641C257.674 170.959 262.81 171.708 263.826 171.877L267.415 173.206L266.519 171.974C265.523 171.342 259.749 167.592 258.93 165.078C258.502 163.76 258.842 162.415 259.82 161.567C260.921 160.611 262.584 160.498 264.159 161.27C267.062 162.697 273.802 166.317 273.87 166.353L279.088 170.341L279.543 164.685C277.786 164.004 271.307 161.298 270.852 158.238C270.708 157.261 271.153 156.373 272.177 155.597L272.397 155.431L284.981 160.15L287.714 172.883L287.651 173.031C286.92 174.716 269.663 214.434 262.728 223.591C257.858 230.024 240.926 251.022 227.549 251.168C227.502 251.169 227.455 251.169 227.408 251.169ZM218.733 245.773C221.09 248.69 224.008 250.169 227.41 250.169C227.453 250.169 227.495 250.169 227.539 250.168C240.461 250.027 257.129 229.329 261.931 222.988C268.586 214.2 285.489 175.491 286.67 172.78L284.118 160.894L272.571 156.564C272.002 157.055 271.762 157.556 271.841 158.09C272.189 160.428 278.025 163.063 280.244 163.881L280.599 164.012L279.938 172.251L273.33 167.191C273.316 167.191 266.602 163.585 263.717 162.169C262.495 161.568 261.28 161.624 260.475 162.322C259.796 162.911 259.574 163.826 259.881 164.768C260.503 166.676 265.327 170.044 267.133 171.18L267.271 171.309L270.171 175.297L263.57 172.838C261.386 172.489 257.887 172.356 257.244 173.233C257.215 173.271 257.212 173.289 257.227 173.335C257.467 174.097 260.316 175.484 262.818 176.331L263.079 176.419L263.144 176.687C263.526 178.264 265.791 179.46 265.813 179.472L266.117 179.63L265.455 185.622L265.175 185.733C263.628 186.347 247.124 200.55 236.408 209.948L235.717 210.552L233.006 192.249L215.825 199.549L218.733 245.773Z" fill="#2B5878"/>
<path d="M275.33 176.052C275.128 176.052 274.936 175.928 274.861 175.728L272.769 170.162L259.7 163.05C259.458 162.918 259.367 162.614 259.499 162.371C259.632 162.129 259.935 162.04 260.179 162.171L273.575 169.461L275.798 175.376C275.895 175.635 275.765 175.923 275.506 176.02C275.448 176.042 275.389 176.052 275.33 176.052Z" fill="#2B5878"/>
<path d="M162.041 198.588C162.041 198.588 164.124 207.834 166.479 207.242C168.834 206.651 190.287 189.989 190.287 189.989L208.522 172.927L223.6 150.995C223.6 150.995 227.644 141.185 238.891 146.509C250.139 151.832 247.428 156.549 247.428 156.549C247.428 156.549 246.101 158.809 238.807 156.549C238.807 156.549 241.271 168.21 236.003 175.434L229.314 182.015L188.764 225.961C188.764 225.961 172.083 251.257 153.286 247.261C153.286 247.261 137.545 243.429 127.245 211.768L162.041 198.588Z" fill="#F6FFFF"/>
<path d="M166.2 207.657C161.991 204.818 157.811 181.751 157.636 180.77L158.62 180.595C159.797 187.158 163.554 204.668 166.76 206.828L166.2 207.657Z" fill="#2B5878"/>
<path d="M162.601 220.111C162.565 220.017 159.207 210.623 172.649 202.296C185.453 194.365 207.114 173.589 208.139 172.601C208.867 171.544 222.705 151.41 224.158 148.984C224.774 147.955 226.583 145.47 230.062 144.638C233.497 143.815 237.528 144.839 242.041 147.678C246.106 150.235 249.634 152.811 248.166 156.194C247.09 158.677 245.635 158.382 242.444 157.728C241.454 157.526 240.22 157.275 238.73 157.043C232.946 156.141 231.497 157.188 231.484 157.199L230.833 156.44C230.993 156.298 232.58 155.074 238.884 156.054C240.398 156.29 241.643 156.545 242.644 156.749C245.944 157.423 246.516 157.488 247.248 155.796C248.297 153.379 246.04 151.376 241.508 148.524C237.231 145.834 233.455 144.855 230.294 145.611C227.185 146.355 225.567 148.577 225.015 149.498C223.515 152.003 209.53 172.345 208.935 173.21L208.871 173.286C208.646 173.503 186.317 195.006 173.176 203.145C160.469 211.017 163.406 219.406 163.537 219.758L162.601 220.111Z" fill="#2B5878"/>
<path d="M157.005 248.093C155.751 248.093 154.482 247.985 153.196 247.753C138.045 245.02 127.223 213.277 126.77 211.927L127.718 211.609C127.827 211.934 138.802 244.141 153.374 246.769C172.006 250.128 187.857 226.302 188.016 226.062C188.422 225.596 224.35 185.214 233.056 177.804C241.496 170.619 238.353 156.803 238.32 156.664L239.293 156.434C239.328 156.581 240.146 160.097 239.885 164.593C239.537 170.587 237.401 175.419 233.704 178.566C225.051 185.931 189.168 226.261 188.807 226.667C188.697 226.843 174.572 248.09 157.005 248.093Z" fill="#2B5878"/>
<path d="M232.455 163.6C232.291 163.6 232.13 163.519 232.034 163.37C231.885 163.137 231.953 162.828 232.185 162.679C235.259 160.71 239.419 162.07 239.595 162.129C239.856 162.216 239.997 162.499 239.909 162.761C239.823 163.023 239.54 163.166 239.277 163.078C239.237 163.065 235.392 161.813 232.725 163.521C232.642 163.575 232.548 163.6 232.455 163.6Z" fill="#2B5878"/>
<path d="M233.115 169.211C232.927 169.211 232.746 169.104 232.662 168.922C232.546 168.671 232.654 168.374 232.904 168.258C236.474 166.602 239.013 167.868 239.119 167.923C239.365 168.049 239.462 168.35 239.335 168.595C239.209 168.841 238.908 168.937 238.663 168.813C238.565 168.763 236.422 167.726 233.326 169.164C233.258 169.196 233.185 169.211 233.115 169.211Z" fill="#2B5878"/>
<path d="M158.542 51.607C158.542 51.607 159.023 77.517 152.908 74.919C150.662 73.964 149.944 72.57 149.944 72.57C149.944 72.57 147.338 71.898 145.621 72.108C145.621 72.108 136.716 49.609 149.808 41.299C154.445 38.356 160.136 40.264 160.136 40.264C160.136 40.264 160.779 31.534 171.651 31.072C171.651 31.072 185.159 24.673 203.342 35.932C221.526 47.191 205.34 56.518 205.34 56.518C205.34 56.518 209.126 65.333 196.538 65.876L196.859 60.817C196.859 60.817 188.173 60.233 185.17 56.988C182.167 53.742 175.29 43.791 170.112 45.197C164.934 46.603 158.542 51.607 158.542 51.607Z" fill="#2B5878"/>
<path d="M173.561 73.101C173.561 74.0037 172.748 74.7354 171.745 74.7354C170.741 74.7354 169.927 74.0037 169.927 73.101C169.927 72.1983 170.741 71.4666 171.745 71.4666C172.748 71.4666 173.561 72.1983 173.561 73.101Z" fill="#2B5878"/>
<path d="M193.683 74.541C193.683 75.4437 192.87 76.1754 191.867 76.1754C190.863 76.1754 190.049 75.4437 190.049 74.541C190.049 73.6383 190.863 72.9066 191.867 72.9066C192.87 72.9066 193.683 73.6383 193.683 74.541Z" fill="#2B5878"/>
<path d="M207.51 173.065L206.328 161.854L207.322 161.749L208.504 172.96L207.51 173.065Z" fill="#2B5878"/>
</g>
</g>
</g>
<defs>
<clipPath id="clip0_36_2">
<rect width="375" height="260" fill="white"/>
</clipPath>
</defs>
</svg>
